<svg id="Layer_1" xmlns="http://www.w3.org/2000/svg" width="165.667" height="64.667"><style>.st0{fill:#fff}</style><path class="st0" d="M10.714 14.155c-.414.216-1.333.504-2.503.504-2.629 0-4.339-1.783-4.339-4.447 0-2.683 1.837-4.627 4.682-4.627.936 0 1.765.234 2.196.45l-.36 1.224c-.378-.216-.972-.414-1.836-.414-1.999 0-3.079 1.477-3.079 3.295 0 2.017 1.296 3.259 3.025 3.259.9 0 1.495-.234 1.945-.432l.269 1.188zM12.451 2.37h1.584l.025 4.763h.036a2.94 2.94 0 0 1 1.134-1.116 3.26 3.26 0 0 1 1.62-.45c1.17 0 3.043.72 3.043 3.727v5.186H18.31V9.474c0-1.404-.522-2.593-2.017-2.593-1.026 0-1.836.72-2.125 1.584-.09.216-.108.45-.108.756v5.257h-1.584L12.451 2.37zM22.376 8.483c0-1.026-.018-1.909-.072-2.719h1.387l.054 1.71h.072c.396-1.17 1.35-1.909 2.413-1.909.18 0 .306.018.45.054v1.495a2.38 2.38 0 0 0-.54-.054c-1.116 0-1.909.847-2.125 2.035a4.458 4.458 0 0 0-.072.738v4.646h-1.566V8.483zM30.008 3.315c.018.541-.378.973-1.008.973-.558 0-.955-.432-.955-.973 0-.558.414-.99.99-.99.595 0 .973.432.973.99zm-1.764 11.164V5.765h1.584v8.714h-1.584zM32.149 12.858c.468.306 1.296.63 2.089.63 1.152 0 1.692-.576 1.692-1.296 0-.756-.45-1.17-1.621-1.603-1.566-.558-2.305-1.422-2.305-2.467 0-1.404 1.135-2.557 3.007-2.557.882 0 1.657.252 2.143.54l-.396 1.152a3.39 3.39 0 0 0-1.782-.504c-.937 0-1.458.54-1.458 1.188 0 .72.522 1.044 1.656 1.477 1.513.576 2.287 1.333 2.287 2.629 0 1.53-1.188 2.611-3.259 2.611-.954 0-1.836-.234-2.449-.594l.396-1.206z"/><g><path class="st0" d="M148.621 38.759h-6.437c-.473 0-1.012.011-1.375.044v-.869l.925-.044v-.022c-.595-.297-1.046-.946-1.046-1.815 0-1.287 1.09-2.277 2.707-2.277 1.771-.011 2.86 1.089 2.86 2.387 0 .814-.386 1.364-.813 1.606v.022h3.179v.968zm-4.654-.968a1.7 1.7 0 0 0 .406-.044c.617-.143 1.123-.671 1.123-1.397 0-1.001-.881-1.596-2.058-1.596-1.078 0-1.97.528-1.97 1.573 0 .649.43 1.243 1.156 1.419.131.033.264.044.418.044h.925zM143.295 40.903c-1.309.022-1.848.858-1.848 1.826 0 .693.121 1.111.275 1.474l-.693.165c-.154-.341-.33-.924-.33-1.771 0-1.64 1.078-2.619 2.684-2.619 1.607 0 2.872.946 2.872 2.498 0 1.738-1.529 2.2-2.509 2.2-.197 0-.352-.022-.451-.033v-3.74zm.694 2.839c.616.011 1.573-.253 1.573-1.342 0-.979-.901-1.408-1.573-1.485v2.827zM141.799 45.743a2.537 2.537 0 0 0-.385 1.276c0 .704.352 1.034.792 1.034.462 0 .716-.275.979-.99.341-.957.869-1.408 1.508-1.408.857 0 1.562.693 1.562 1.837 0 .539-.153 1.012-.33 1.309l-.704-.242c.132-.209.309-.594.309-1.089 0-.572-.33-.891-.727-.891-.439 0-.639.319-.902 1.012-.352.924-.814 1.397-1.605 1.397-.936 0-1.596-.726-1.596-1.991 0-.583.143-1.122.363-1.496l.736.242zM140.809 50.231h5.325v.968h-5.325v-.968zm6.821 1.078c-.33.011-.594-.231-.594-.616 0-.341.264-.583.594-.583a.59.59 0 0 1 .605.605c.001.363-.264.594-.605.594zM146.134 57.392a23.417 23.417 0 0 0-1.464-.044h-3.091c-1.222 0-1.97-.242-2.431-.759-.484-.517-.639-1.266-.639-1.937 0-.638.154-1.342.439-1.771l.738.242c-.221.352-.418.902-.418 1.562 0 .99.517 1.716 1.858 1.716h.595v-.021c-.496-.297-.892-.869-.892-1.694 0-1.32 1.122-2.267 2.597-2.267 1.805 0 2.827 1.177 2.827 2.398 0 .924-.483 1.43-.925 1.661v.022l.804.044v.848zm-2.1-1.001c.164 0 .308-.011.439-.055.561-.176 1.023-.649 1.023-1.353 0-.924-.781-1.584-2.014-1.584-1.045 0-1.914.528-1.914 1.573 0 .594.374 1.133.99 1.342.164.055.352.077.517.077h.959zM144.694 58.888c.549 0 1-.011 1.44-.044v.858l-.88.055v.022c.506.264 1.001.88 1.001 1.76 0 .737-.44 1.881-2.267 1.881h-3.18v-.968h3.07c.857 0 1.572-.319 1.572-1.232 0-.638-.451-1.133-.99-1.298a1.381 1.381 0 0 0-.45-.066h-3.202v-.968h3.886z"/></g><g><path class="st0" d="M110.449 39.723a93.77 93.77 0 0 0-19.04 4.76 101.07 101.07 0 0 0-11.11 4.841c2.684 9.225 10.521 14.743 22.446 14.743 5.939 0 11.43-.9 15.929-2.7l-1.8-9.27c-3.69 1.17-7.47 1.703-12.149 1.703-6.39 0-11.97-2.467-12.419-8.467h28.349a31.204 31.204 0 0 0 .432-6.319c-3.495-.057-7.039.205-10.638.709zM122.824 31.425c.004.583-.157 1.171-.157 1.773v2.75c5-.04 8.919.323 13.203 1.14.221.042.522.095.742.14.046-1.086.255-2.169.562-2.86.445-1.246 1.16-2.512 2.286-3.476a106.463 106.463 0 0 0-16.636.533zM122.667 39.121v22.014c2-.957 3.686-1.802 5.632-1.802h2.04c.681 0 1.356.169 2.036.396 1.792.613 3.292 1.594 4.292 2.797V41.469c-2-.779-5.076-1.375-7.516-1.746-2.088-.309-4.484-.504-6.484-.602zM150.667 38.777v3.867c5 2.919 9.181 6.615 12.065 11.104.679 1.058 1.935 2.138 1.935 3.235V37.067c0-.747.016-1.465-.029-2.166-5.047-1.383-10.325-2.423-15.47-3.116 1.162 1.682 1.499 4.101 1.499 6.992zM150.959 48.818c-.029-.022-.293-.041-.293-.063v14.578h11.61c-.653-2-1.734-4.12-3.055-6.017-2.209-3.171-5.031-6.06-8.262-8.498zM76.667 48.358v-.381c0 .471-1.397.947-2.087 1.436.703-.367 2.087-.705 2.087-1.055zM94.894 38.531c-5.335 2.176-10.428 4.745-15.279 7.789.039.246.085.465.13.706.946-.455 1.893-.919 2.823-1.343a105.46 105.46 0 0 1 7.479-3.065c4.872-1.7 9.887-3.174 15.045-4.423a81.25 81.25 0 0 1 15.556-2.211c.062-.002.123-.001.184-.004a27.306 27.306 0 0 0-.885-4.175c-.957.135-1.914.276-2.869.438-2.996.485-5.944 1.181-8.846 1.914.128.744.182 1.176.182 2.176h-7.332c-2.087 1-4.152 1.367-6.188 2.198z"/><path class="st0" d="M132.378 60.376c-2.269-.68-4.868-.578-7.474.383-.733.271-1.238.558-2.238.932v1.642h14c-1.1-2-2.519-2.435-4.288-2.957zM16.885 63.858c4.412-.404 8.185-1.525 10.71-5.525h.27l.81 5h12.33c-.375-2-.561-5.269-.613-8.714-1.467-.371-2.934-.744-4.4-1-3.972-.691-7.862-.918-11.674-.667a7.536 7.536 0 0 1-4.642 1.585c-.97 0-1.854-.197-2.627-.543-.887.205-1.769.327-2.646.586 1.144 3.108 1.967 6.129 2.482 9.278zM91.324 39.041c2.281-1.02 4.615-1.708 6.993-2.708h-6.102c.36-4 2.7-8.992 8.46-8.992 4.655 0 6.653 3.005 7.38 5.939 2.943-.729 5.947-1.373 9.023-1.867.875-.135 1.75-.261 2.626-.375-2.401-7.203-8.056-12.865-18.22-12.865-15.3 0-22.229 12.327-22.229 23.486 0 1.25.095 2.482.234 3.645 3.805-2.374 7.749-4.438 11.835-6.263zM68.969 52.813c2.603-2.133 5.697-4.117 7.697-5.954V2.333h-13v54.453c1.001-1.389 3.354-2.729 5.303-3.973zM58.449 60.73c.019-.017.218-.033.218-.05V2.333h-14v52.365c5 1.447 9.23 3.459 13.782 6.032zM63.667 60.185v3.148h13V51.058c-1 .625-1.917 1.255-3.021 1.925a77.062 77.062 0 0 0-9.979 7.202z"/><path class="st0" d="M18.626 27.528c6.749 0 8.04 3.33 8.04 5.67v.63c-9-.051-16.008 1.702-20.518 5.321a63.512 63.512 0 0 1 2.573 3.889 90.696 90.696 0 0 1 5.518 10.625c.537-.152 1.078-.277 1.62-.41-.982-.866-1.776-2.176-1.776-3.946 0-5.31 5.583-7.02 12.583-6.93v4.77c0 .81.104 1.62-.076 2.34-.288.891-.688 1.715-1.32 2.44a55.128 55.128 0 0 1 10.587.631c1.49.232 3.152.543 4.644.898-.002-.333.165-.664.165-.999V37.158c0-10.35-4.826-18.989-19.495-18.989-8.01 0-14.112 2.16-17.172 3.87l2.499 8.82c2.88-1.801 7.628-3.331 12.128-3.331zM44.667 63.333h11.208c.569-1 1.023-1.191 1.606-1.722-4.236-2.375-8.814-4.356-12.814-5.769v7.491zM140.463 30.239c1.009-.615 2.231-1.001 3.681-1.001 1.995 0 3.501.638 4.596 1.759 5.33.671 10.62 1.699 15.869 3.088-.974-10.88-7.331-15.844-15.604-15.844-7.29 0-11.79 4.092-13.59 7.092h-.27l-.63-6h-11.879c.151 3 .301 7.003.346 11.404 5.814-.587 11.641-.816 17.481-.498zM3.895 59.303c2.439 2.907 6.227 4.854 11.101 4.854.34 0 .668-.03 1.002-.046a49.853 49.853 0 0 0-2.447-9.257 47.482 47.482 0 0 0-9.656 4.449zM5.409 39.753C2.43 42.449.777 46.074.777 50.657c0 2.849.888 5.6 2.523 7.874a40.549 40.549 0 0 1 10.082-4.528 75.372 75.372 0 0 0-5.354-10.37 65.551 65.551 0 0 0-2.619-3.88z"/></g></svg>